<?xml version="1.0" standalone="no"?>
<!DOCTYPE svg PUBLIC "-//W3C//DTD SVG 20010904//EN"
 "http://www.w3.org/TR/2001/REC-SVG-20010904/DTD/svg10.dtd">
<svg version="1.0" xmlns="http://www.w3.org/2000/svg"
 width="200.000000pt" height="200.000000pt" viewBox="0 0 200.000000 200.000000"
 preserveAspectRatio="xMidYMid meet">
<metadata>
Created by potrace 1.11, written by Peter Selinger 2001-2013
</metadata>
<g transform="translate(0.000000,200.000000) scale(0.100000,-0.100000)"
fill="#000000" stroke="none">
<path d="M0 1653 c0 -190 2 -344 4 -342 21 20 34 64 25 82 -8 14 -7 22 7 32
17 12 17 18 2 116 -9 57 -15 118 -12 134 12 71 40 138 69 162 26 23 36 25 92
20 117 -9 161 -61 148 -175 -8 -71 8 -99 48 -88 33 8 34 24 2 55 -32 30 -32
43 3 40 15 -2 33 0 40 4 6 5 16 6 21 2 5 -3 12 -1 15 4 7 11 -12 25 -34 27
-44 3 -50 5 -50 17 0 27 105 104 170 124 93 30 159 44 171 38 5 -4 34 3 65 14
30 12 68 21 84 21 30 0 51 24 43 48 -4 9 -105 12 -459 12 l-454 0 0 -347z
m370 -43 c0 -5 -4 -10 -10 -10 -5 0 -10 5 -10 10 0 6 5 10 10 10 6 0 10 -4 10
-10z"/>
<path d="M1085 1983 c2 -10 4 -23 4 -28 1 -12 59 -39 81 -37 31 3 201 -48 237
-71 21 -13 46 -26 56 -30 9 -3 17 -11 17 -17 0 -5 10 -10 23 -10 12 0 29 -9
37 -20 9 -12 21 -18 32 -14 12 3 18 0 18 -10 0 -8 9 -18 20 -21 27 -9 25 -16
-12 -56 -27 -28 -30 -34 -15 -37 24 -5 21 -22 -5 -22 -24 0 -19 -10 9 -15 10
-2 20 -4 23 -5 3 -1 -6 -6 -20 -12 -21 -9 -22 -12 -7 -15 9 -3 17 -11 17 -20
0 -10 6 -13 16 -9 9 3 22 6 29 6 25 0 11 54 -16 61 -23 7 -23 7 -2 8 16 1 29
13 43 41 24 46 48 64 116 85 66 20 110 19 163 -5 24 -11 45 -20 47 -20 2 0 4
65 4 145 l0 145 -459 0 c-432 0 -459 -1 -456 -17z"/>
<path d="M992 1780 c-12 -5 -29 -7 -37 -4 -8 4 -15 1 -15 -5 0 -6 6 -11 14
-11 7 0 19 -7 26 -15 17 -21 25 -19 38 10 18 39 16 41 -26 25z"/>
<path d="M310 1580 c0 -5 7 -10 15 -10 8 0 15 5 15 10 0 6 -7 10 -15 10 -8 0
-15 -4 -15 -10z"/>
<path d="M1629 1515 c-9 -8 3 -75 13 -75 5 0 7 -3 5 -7 -2 -5 4 -16 14 -25 15
-14 18 -14 23 -2 3 8 1 25 -4 38 -5 13 -7 26 -4 28 2 3 -7 14 -19 26 -13 12
-26 20 -28 17z"/>
<path d="M1982 1387 c-15 -34 -16 -93 -2 -102 15 -10 21 17 18 76 -3 52 -4 53
-16 26z"/>
<path d="M835 1340 c3 -5 8 -10 11 -10 2 0 4 5 4 10 0 6 -5 10 -11 10 -5 0 -7
-4 -4 -10z"/>
<path d="M789 1301 c-2 -32 3 -66 12 -78 7 -7 6 -14 -1 -18 -5 -3 -10 -21 -10
-40 0 -45 -18 -54 -45 -24 -12 13 -28 26 -36 27 -35 9 -82 3 -98 -12 -10 -9
-32 -21 -50 -26 -26 -7 -33 -5 -41 10 -12 23 -60 36 -71 19 -11 -18 -3 -26 32
-34 28 -6 79 -47 79 -64 0 -17 60 -63 75 -57 11 4 14 2 9 -6 -5 -8 -1 -9 11
-4 11 4 38 10 61 13 35 4 45 11 60 38 14 27 25 34 58 39 136 18 126 14 126 60
0 23 -3 46 -7 52 -5 5 2 -1 15 -13 23 -23 30 -39 12 -28 -15 10 -12 -15 5 -31
16 -16 22 -17 49 -2 12 7 16 7 12 0 -6 -11 34 -26 95 -36 35 -6 59 -35 59 -71
0 -17 90 -109 141 -144 32 -22 67 -71 49 -71 -16 0 3 -48 23 -58 33 -17 107
-34 122 -29 15 6 9 128 -7 139 -6 3 -12 15 -13 25 0 10 -5 25 -10 33 -5 8 -9
27 -10 42 -1 15 -12 39 -25 52 -12 14 -20 32 -17 40 4 9 2 18 -3 21 -6 4 -10
2 -10 -3 0 -5 -9 -12 -20 -15 -21 -5 -28 7 -10 18 6 4 8 10 5 15 -3 5 11 16
32 25 38 16 79 52 70 61 -3 3 -15 -5 -27 -18 -17 -17 -21 -19 -17 -5 8 23 -8
22 -33 -3 -26 -26 -29 -26 -81 10 -59 39 -89 38 -135 -5 -20 -19 -38 -35 -39
-35 -4 0 -18 144 -17 172 1 26 -1 27 -21 16 -12 -7 -25 -11 -29 -10 -5 1 -8
-9 -8 -22 0 -19 -5 -24 -20 -23 -12 1 -20 8 -20 19 0 9 -4 20 -10 23 -6 3 -10
-4 -10 -17 0 -13 -4 -29 -9 -37 -6 -10 -11 -6 -18 14 -9 28 -9 28 -22 -16 -12
-38 -14 -41 -24 -23 -13 23 -28 34 -39 28 -4 -3 -8 2 -8 10 0 19 -20 22 -21 4
0 -7 -5 -2 -11 12 l-11 25 -7 -30 -8 -30 -2 30 c-1 17 -2 37 -1 45 2 13 1 13
-9 0 -9 -13 -11 -13 -19 -1 -13 20 -51 21 -52 2z m-98 -171 c10 -6 19 -15 19
-20 0 -16 -67 -12 -73 4 -10 26 18 35 54 16z m649 -20 c0 -5 -20 -8 -46 -8
-30 0 -44 4 -41 11 2 7 16 11 31 10 14 -1 26 3 26 9 0 6 6 6 15 -2 8 -7 15
-16 15 -20z m68 -87 c-10 -2 -15 -10 -11 -19 3 -8 0 -14 -7 -14 -7 0 -18 -6
-24 -14 -12 -15 -120 -31 -111 -16 3 5 0 10 -7 12 -6 2 -8 10 -4 16 4 8 21 10
44 7 26 -4 47 0 72 13 19 11 42 20 50 20 10 0 10 -2 -2 -5z"/>
<path d="M144 1215 c-33 -35 -43 -54 -48 -94 -8 -63 -32 -121 -50 -121 -7 0
-20 -8 -29 -18 -15 -17 -17 -66 -17 -500 l0 -482 1000 0 1000 0 0 95 c0 84 -3
102 -27 148 -15 29 -26 59 -25 68 2 8 -9 32 -23 53 -14 20 -21 35 -15 31 5 -3
10 -4 10 0 0 3 -28 24 -63 46 -50 33 -56 39 -32 35 l30 -6 -30 15 c-30 16 -30
16 -3 10 34 -6 41 4 24 37 -8 14 -19 48 -26 75 -11 44 -11 54 4 84 9 19 19 66
22 104 6 80 6 73 1 145 -3 41 2 66 17 97 l21 43 -35 29 c-35 30 -70 40 -70 21
0 -5 6 -10 14 -10 9 0 12 -7 9 -20 -3 -11 -10 -20 -15 -20 -7 0 -6 -5 1 -13
15 -19 3 -29 -20 -16 -27 14 -34 -10 -15 -55 13 -32 13 -37 -1 -44 -19 -11
-20 -86 -2 -108 11 -13 9 -14 -14 -9 -32 8 -34 2 -8 -26 21 -23 17 -59 -6 -59
-12 0 -13 -3 -4 -14 14 -17 4 -73 -15 -80 -7 -3 -11 -12 -8 -20 7 -18 -28 -38
-50 -30 -9 3 -16 2 -16 -3 0 -18 56 -63 95 -76 21 -8 41 -20 43 -27 3 -7 0
-10 -7 -6 -6 4 -11 1 -11 -6 0 -9 -3 -9 -8 -2 -9 14 -95 64 -110 64 -7 0 -9
-7 -5 -17 6 -16 5 -16 -10 -5 -17 14 -57 8 -57 -9 0 -5 -7 -9 -15 -9 -12 0
-13 -4 -5 -19 5 -11 14 -32 20 -48 8 -24 8 -25 -3 -8 -27 43 -87 97 -102 91
-10 -3 -13 -2 -10 5 4 6 -1 20 -11 32 -10 12 -12 16 -4 10 8 -7 20 -13 28 -13
12 0 12 2 1 16 -12 15 -11 16 6 11 11 -4 26 -3 34 2 11 7 7 14 -20 30 -19 12
-38 21 -43 21 -5 0 -7 2 -4 5 3 3 21 -2 41 -10 61 -25 42 -6 -25 25 -64 30
-116 41 -66 14 35 -19 36 -27 2 -14 -35 14 -39 13 -23 -6 12 -15 11 -16 -9
-10 -26 9 -29 -1 -4 -20 15 -12 14 -13 -11 -4 -22 8 -32 7 -43 -5 -9 -8 -12
-15 -7 -15 4 0 0 -5 -9 -11 -17 -9 -17 -12 -1 -42 16 -31 16 -32 -3 -17 -10 8
-26 23 -34 34 -15 17 -17 17 -29 2 -11 -13 -11 -22 -2 -42 6 -14 16 -22 21
-19 16 10 3 -65 -19 -108 -38 -74 -105 -152 -123 -141 -5 3 -15 1 -22 -5 -9
-8 -27 -8 -62 0 -73 15 -106 17 -131 8 -29 -11 -73 11 -145 73 -39 34 -59 59
-63 81 -4 18 -13 39 -20 47 -15 17 -12 64 5 85 9 11 9 15 1 15 -6 0 -11 -4
-11 -9 0 -5 -7 -11 -15 -15 -13 -4 -13 -2 -5 14 5 10 15 22 20 25 6 3 10 15
10 26 0 17 -3 18 -20 9 -22 -12 -27 -1 -7 19 10 10 5 12 -23 11 -59 -3 -68 -1
-50 10 13 8 12 10 -3 10 -27 0 -87 -28 -87 -41 0 -6 6 -9 13 -6 52 22 53 21
28 -6 -14 -15 -20 -27 -13 -27 16 0 26 -40 13 -53 -8 -8 -18 -7 -36 3 -20 11
-33 11 -55 3 -28 -10 -28 -10 -18 13 14 31 3 42 -20 21 -24 -22 -31 -21 -25 3
4 16 0 20 -22 20 -18 0 -39 -13 -66 -42 -22 -24 -37 -34 -33 -24 6 16 4 18
-12 12 -14 -5 -11 1 10 23 17 17 26 31 22 31 -13 0 -75 -57 -69 -64 3 -3 -8
-16 -23 -30 -16 -13 -31 -23 -33 -21 -4 5 66 94 88 112 12 11 13 16 1 38 -7
14 -17 25 -22 25 -4 0 -8 16 -8 36 0 19 -7 42 -16 51 -14 14 -13 18 7 39 20
21 21 24 5 24 -15 0 -16 3 -6 15 10 13 9 15 -9 15 -20 0 -21 1 -7 16 9 8 16
25 16 37 1 12 7 39 14 59 10 27 10 40 2 49 -8 8 -8 13 1 16 9 3 8 11 -5 31 -9
15 -21 30 -27 34 -6 5 -3 8 6 8 9 0 22 6 28 14 10 12 6 13 -29 9 -39 -5 -55 7
-29 23 8 4 7 9 -2 15 -10 7 -11 11 -2 17 16 10 73 83 73 93 0 18 -16 7 -56
-36z m176 -715 c-6 -11 -13 -20 -16 -20 -2 0 0 9 6 20 6 11 13 20 16 20 2 0 0
-9 -6 -20z m1524 -85 c27 -25 46 -48 44 -51 -3 -3 -34 23 -69 57 -35 34 -55
57 -44 51 11 -6 42 -32 69 -57z"/>
<path d="M1500 1210 c-24 -15 -7 -18 20 -3 14 7 18 13 10 13 -8 0 -22 -4 -30
-10z"/>
<path d="M1755 1200 c3 -5 8 -10 11 -10 2 0 4 5 4 10 0 6 -5 10 -11 10 -5 0
-7 -4 -4 -10z"/>
<path d="M420 1170 c0 -5 5 -10 11 -10 5 0 7 5 4 10 -3 6 -8 10 -11 10 -2 0
-4 -4 -4 -10z"/>
<path d="M1775 1170 c3 -5 11 -10 16 -10 6 0 7 5 4 10 -3 6 -11 10 -16 10 -6
0 -7 -4 -4 -10z"/>
<path d="M480 1071 c0 -6 9 -11 20 -11 11 0 20 -4 20 -10 0 -5 -6 -7 -14 -4
-15 6 -28 -17 -65 -113 -11 -29 -18 -59 -15 -68 4 -10 0 -15 -10 -15 -18 0
-18 2 -21 -62 -2 -28 1 -48 7 -48 5 0 46 18 90 40 l81 40 -34 15 -34 16 43 -7
c36 -5 41 -3 36 10 -5 12 5 21 37 36 24 11 52 26 61 33 15 12 11 15 -33 26
-27 7 -56 22 -63 33 -9 12 -19 17 -27 13 -8 -6 -10 -4 -4 5 4 7 2 16 -6 21 -7
4 -14 18 -14 31 0 18 -6 24 -27 26 -16 2 -28 -1 -28 -7z"/>
<path d="M885 855 c-33 -17 -65 -72 -65 -112 0 -27 65 -97 101 -108 30 -10 22
-23 -18 -28 -34 -5 -152 -36 -162 -43 -9 -8 24 -104 52 -151 46 -77 112 -108
192 -89 85 21 121 51 166 144 21 42 38 80 39 84 0 3 -13 9 -30 13 -16 4 -30
10 -30 15 0 9 -88 34 -112 31 -34 -4 -26 17 13 34 50 23 89 68 89 103 0 31
-27 76 -58 98 -33 23 -141 28 -177 9z m-35 -358 c43 -41 77 -60 91 -51 7 4 1
16 -15 31 -37 34 -24 45 26 21 28 -14 37 -22 28 -28 -7 -4 -9 -13 -6 -19 5 -8
24 0 57 25 54 39 79 39 79 0 0 -52 -19 -73 -82 -91 -43 -12 -63 -14 -71 -6 -6
6 -27 11 -46 11 -51 0 -97 31 -111 75 -12 35 -8 65 7 65 4 0 24 -15 43 -33z"/>
<path d="M500 773 c0 -5 -15 -15 -32 -22 -44 -18 -14 -26 34 -9 43 15 53 32
21 36 -13 2 -23 0 -23 -5z"/>
<path d="M1435 699 c22 -10 56 -18 75 -18 l35 0 -25 14 c-29 17 -44 19 -35 5
3 -5 -7 -3 -22 5 -15 8 -37 15 -48 14 -14 0 -7 -7 20 -20z"/>
<path d="M510 683 c-14 -3 -29 -8 -34 -13 -5 -5 8 -5 29 0 20 4 39 11 42 14 7
6 4 6 -37 -1z"/>
</g>
</svg>
